<svg xmlns="http://www.w3.org/2000/svg" width="21.702" height="21.703" viewBox="0 0 21.702 21.703">
  <g id="그룹_532" data-name="그룹 532" transform="translate(0 -0.063)">
    <path id="패스_170" data-name="패스 170" d="M16.464.077H5.238A5.239,5.239,0,0,0,0,5.315V16.541A5.24,5.24,0,0,0,5.238,21.78H16.464A5.24,5.24,0,0,0,21.7,16.541V5.315A5.239,5.239,0,0,0,16.464.077m3.368,16.09a3.743,3.743,0,0,1-3.741,3.741H5.612a3.743,3.743,0,0,1-3.741-3.741V5.69A3.743,3.743,0,0,1,5.612,1.948H16.09A3.743,3.743,0,0,1,19.831,5.69Z" transform="translate(0 -0.014)"/>
    <path id="패스_171" data-name="패스 171" d="M11.908,6.372a5.613,5.613,0,1,0,5.613,5.614,5.615,5.615,0,0,0-5.613-5.614m0,9.354a3.742,3.742,0,1,1,3.741-3.741,3.747,3.747,0,0,1-3.741,3.741" transform="translate(-1.057 -1.069)"/>
    <path id="패스_172" data-name="패스 172" d="M20.008,6.819A1.123,1.123,0,1,1,21.13,5.7a1.124,1.124,0,0,1-1.123,1.123" transform="translate(-3.17 -0.768)"/>
  </g>
</svg>
