<svg xmlns="http://www.w3.org/2000/svg" width="18.663" height="21.703" viewBox="0 0 18.663 21.703">
  <path id="패스_174" data-name="패스 174" d="M158.334,12.092a6.765,6.765,0,0,1-.551,2,4.164,4.164,0,0,1-3.509,2.5,5.047,5.047,0,0,1-2.693-.4,3.437,3.437,0,0,1-2.055-3.69,3.332,3.332,0,0,1,1.712-2.465,5.745,5.745,0,0,1,2.741-.734,12.045,12.045,0,0,1,2.258.1c.072.011.146.015.268.027-.085-.3-.146-.573-.246-.836a2.322,2.322,0,0,0-2.194-1.542,3.424,3.424,0,0,0-1.73.259,2.564,2.564,0,0,0-1.054.911L149.707,7.15c.243-.272.459-.548.709-.789A4.3,4.3,0,0,1,152.883,5.2a5.112,5.112,0,0,1,3.4.593A4.076,4.076,0,0,1,158.031,8a5.9,5.9,0,0,1,.363,1.773.354.354,0,0,0,.247.348,5.833,5.833,0,0,1,2.06,1.522,5.06,5.06,0,0,1,1.2,2.848,5.917,5.917,0,0,1-2.044,5.156,7.917,7.917,0,0,1-4.327,2.006,12.613,12.613,0,0,1-2.559.112,9.31,9.31,0,0,1-4.631-1.394,8.153,8.153,0,0,1-2.932-3.374,12.236,12.236,0,0,1-1.085-3.814,16.93,16.93,0,0,1-.126-3.086,13.284,13.284,0,0,1,1.2-5.2A8,8,0,0,1,150.479.521a11.23,11.23,0,0,1,3.5-.44,10.816,10.816,0,0,1,3.375.588,8.166,8.166,0,0,1,4.257,3.392,10.41,10.41,0,0,1,1.214,2.761c.007.025.009.052.017.1l-1.794.48c-.1-.3-.2-.6-.306-.89a6.656,6.656,0,0,0-2.518-3.3A7,7,0,0,0,155.791,2.2a10.028,10.028,0,0,0-3.313-.153,6.854,6.854,0,0,0-3.893,1.624,6.726,6.726,0,0,0-1.774,2.65,12.322,12.322,0,0,0-.74,3.7,14.973,14.973,0,0,0,.072,2.641,9.826,9.826,0,0,0,1.263,4.076,6.1,6.1,0,0,0,3.7,2.787,9.766,9.766,0,0,0,3.379.315A6.893,6.893,0,0,0,157.547,19a4.872,4.872,0,0,0,2.262-2.484,3.6,3.6,0,0,0-.3-3.345,3.414,3.414,0,0,0-1.177-1.083m-1.8-.685c-.075-.018-.136-.036-.2-.047a9.755,9.755,0,0,0-2.713-.115,3.224,3.224,0,0,0-1.584.526,1.5,1.5,0,0,0,.013,2.522,2.951,2.951,0,0,0,1.924.42,2.362,2.362,0,0,0,2.162-1.524,6.137,6.137,0,0,0,.394-1.783" transform="translate(-144.175 -0.077)"/>
</svg>
