<svg xmlns="http://www.w3.org/2000/svg" width="30.949" height="21.703" viewBox="0 0 30.949 21.703">
  <path id="패스_175" data-name="패스 175" d="M59.91,21.7c-2.424-.056-4.963-.084-7.5-.183-1.5-.059-3-.195-4.492-.358a3.776,3.776,0,0,1-3.478-2.821,14,14,0,0,1-.425-2.471,46.476,46.476,0,0,1-.235-6.088,37.441,37.441,0,0,1,.493-5.817A3.861,3.861,0,0,1,46.986.707a9.253,9.253,0,0,1,2-.34c3.873-.338,7.756-.39,11.64-.358Q63.858.036,67.085.2a32.941,32.941,0,0,1,3.872.385,3.748,3.748,0,0,1,3.2,3.157,24.372,24.372,0,0,1,.452,3.75,51.067,51.067,0,0,1,.048,5.777,27.3,27.3,0,0,1-.536,4.809,3.811,3.811,0,0,1-3.285,3.042c-1.247.17-2.5.3-3.762.356-2.347.109-4.7.155-7.161.231m-3.754-6.238,8.024-4.633L56.156,6.2Z" transform="translate(-43.764 0)"/>
</svg>
