<svg xmlns="http://www.w3.org/2000/svg" width="24.006" height="21.703" viewBox="0 0 24.006 21.703">
  <path id="패스_173" data-name="패스 173" d="M121.852,21.773h-.33c-2.258,0-4.517,0-6.775.007a.556.556,0,0,1-.5-.252q-2.732-3.587-5.476-7.166c-.037-.049-.078-.1-.132-.163-.341.389-.676.768-1.009,1.148q-2.716,3.1-5.43,6.211a.564.564,0,0,1-.477.221c-1.031-.012-2.063-.006-3.094-.006h-.307l8.6-9.827L97.846.081h.315q3.516,0,7.033,0a.449.449,0,0,1,.405.2q2.482,3.293,4.971,6.578c.032.042.068.083.119.146.377-.43.747-.85,1.116-1.272q2.384-2.725,4.765-5.453a.539.539,0,0,1,.461-.2c1.031.009,2.063,0,3.094,0h.308l-8.04,9.189,9.459,12.5m-4.368-2.205c-.073-.1-.111-.162-.151-.216L108.84,8.127q-2.176-2.876-4.348-5.756a.457.457,0,0,0-.424-.211c-.57.014-1.141,0-1.711.006a1.869,1.869,0,0,0-.186.021c.042.063.066.1.094.14l8.5,11.1q2.284,2.986,4.571,5.969c.052.068.135.16.2.161.631.012,1.262.007,1.946.007" transform="translate(-97.846 -0.077)"/>
</svg>
