<svg xmlns="http://www.w3.org/2000/svg" xmlns:xlink="http://www.w3.org/1999/xlink" width="149.1" height="17.161" viewBox="0 0 149.1 17.161">
  <defs>
    <clipPath id="clip-path">
      <rect id="사각형_11" data-name="사각형 11" width="149.1" height="17.161"/>
    </clipPath>
  </defs>
  <g id="그룹_1" data-name="그룹 1" clip-path="url(#clip-path)">
    <path id="패스_1" data-name="패스 1" d="M10.72,8.868a4.782,4.782,0,0,0-1.647-.473,3.83,3.83,0,0,0,1.459-.479A3.37,3.37,0,0,0,11.86,6.529,3.975,3.975,0,0,0,12.3,4.707a3.793,3.793,0,0,0-.6-2.163A3.744,3.744,0,0,0,9.944,1.18,7.484,7.484,0,0,0,7.123.71H0V17.167H7.1a6.993,6.993,0,0,0,3.056-.611,4.345,4.345,0,0,0,1.928-1.74,5.131,5.131,0,0,0,.658-2.633,3.768,3.768,0,0,0-.505-1.928A3.588,3.588,0,0,0,10.72,8.868M4.467,3.978H5.995a1.825,1.825,0,0,1,1.293.4,1.447,1.447,0,0,1,.423,1.1,1.669,1.669,0,0,1-.177.8A1.214,1.214,0,0,1,6.97,6.8a2.239,2.239,0,0,1-.976.188H4.467Zm3.526,8.851a1.5,1.5,0,0,1-.658.588,2.172,2.172,0,0,1-.941.2H4.467V10.279H6.394a1.912,1.912,0,0,1,1.317.458,1.54,1.54,0,0,1,.517,1.211,1.67,1.67,0,0,1-.235.882" transform="translate(0 -0.358)"/>
    <path id="패스_2" data-name="패스 2" d="M38.3,12.982H34.764V.71H30.321V17.167H40.853V12.982H38.3Z" transform="translate(-15.27 -0.358)"/>
    <path id="패스_3" data-name="패스 3" d="M69.583,14.275,64.387.71H59.732l-5.1,13.33-.6,1.551q-.2.517-.6,1.576h4.8q.188-.611.294-.917t.2-.612L59,14.721l.119-.376h5.833l.067.211v.023q.211.635.317.964c.071.22.137.435.2.646s.164.537.306.976h4.843q-.377-.964-.552-1.434t-.552-1.458m-9.235-3.808,1.689-5.35,1.692,5.35Z" transform="translate(-26.908 -0.358)"/>
    <path id="패스_4" data-name="패스 4" d="M100.3,12.331a7.473,7.473,0,0,1-2.81.505,6.439,6.439,0,0,1-2.739-.541,4.161,4.161,0,0,1-1.8-1.528,4.212,4.212,0,0,1-.635-2.328,4.389,4.389,0,0,1,.588-2.327A3.752,3.752,0,0,1,94.6,4.643a6.856,6.856,0,0,1,5.36.082,5.21,5.21,0,0,1,2.069,1.693V1.434A8.479,8.479,0,0,0,99.606.364,11.093,11.093,0,0,0,96.691,0a10.173,10.173,0,0,0-4.819,1.082,7.518,7.518,0,0,0-3.151,3.1,9.857,9.857,0,0,0-1.1,4.8,8.514,8.514,0,0,0,1.035,4.2,7.445,7.445,0,0,0,2.9,2.927,8.509,8.509,0,0,0,4.267,1.058,6.819,6.819,0,0,0,4.855-1.493q1.563-1.493,1.563-4.737a4.457,4.457,0,0,1-1.939,1.4" transform="translate(-44.124 0)"/>
    <path id="패스_5" data-name="패스 5" d="M135.458,15.863q-.423-.529-.87-1.046L129.3,8.457l4.02-4.384.705-.775q.235-.259.729-.776.541-.587.811-.893T136.4.711h-5.642q-.658.776-1,1.152t-.67.764q-.329.387-1.011,1.164l-3.244,3.736V.711h-4.443V17.168h4.443V9.794l5.854,7.373h5.854l-.212-.259q-.447-.517-.87-1.046" transform="translate(-60.628 -0.358)"/>
    <path id="패스_6" data-name="패스 6" d="M168.393,8.856a5.261,5.261,0,0,0,.741-2.762,5.264,5.264,0,0,0-.741-2.762A5.121,5.121,0,0,0,166.325,1.4,6.433,6.433,0,0,0,163.3.71h-6.912V17.167h4.443V11.477H163.3a6.433,6.433,0,0,0,3.021-.693,5.118,5.118,0,0,0,2.068-1.928m-4.032-1.822a1.443,1.443,0,0,1-.67.623,2.782,2.782,0,0,1-1.211.223h-1.646V4.307h1.646a2.23,2.23,0,0,1,1.6.482,1.741,1.741,0,0,1,.493,1.305,1.983,1.983,0,0,1-.211.94" transform="translate(-78.759 -0.358)"/>
    <path id="패스_7" data-name="패스 7" d="M195.039,14.275,189.843.71h-4.655l-5.1,13.33-.6,1.551q-.2.517-.6,1.576h4.8q.188-.611.294-.917t.2-.612q.093-.305.282-.917l.119-.376h5.833l.067.211v.023q.212.635.318.964c.07.22.137.435.2.646s.164.537.305.976h4.843q-.377-.964-.553-1.434t-.552-1.458M185.8,10.466l1.689-5.349,1.692,5.349Z" transform="translate(-90.088 -0.358)"/>
    <path id="패스_8" data-name="패스 8" d="M225.476,1.4A6.435,6.435,0,0,0,222.455.71h-6.912V17.167h4.443V11.477h2.469a6.435,6.435,0,0,0,3.021-.693,5.121,5.121,0,0,0,2.068-1.928,5.261,5.261,0,0,0,.741-2.762,5.264,5.264,0,0,0-.741-2.762A5.124,5.124,0,0,0,225.476,1.4m-1.963,5.631a1.443,1.443,0,0,1-.67.623,2.784,2.784,0,0,1-1.211.223h-1.646V4.307h1.646a2.231,2.231,0,0,1,1.6.482,1.743,1.743,0,0,1,.493,1.305,1.983,1.983,0,0,1-.211.94" transform="translate(-108.548 -0.358)"/>
    <path id="패스_9" data-name="패스 9" d="M243.674.711V17.167h11.1v-3.95h-6.653v-2.4h5.337V6.87h-5.337V4.66h6.653V.711h-11.1Z" transform="translate(-122.715 -0.358)"/>
    <path id="패스_10" data-name="패스 10" d="M279.833,17.167H285.1a.324.324,0,0,1-.059-.07.387.387,0,0,0-.059-.07q-.448-.611-.823-1.117t-1.011-1.328l-3.063-4.055a5.043,5.043,0,0,0,1.982-1.846,5.105,5.105,0,0,0,.729-2.7,5.108,5.108,0,0,0-.729-2.7,5.055,5.055,0,0,0-2.046-1.88A6.446,6.446,0,0,0,277.012.71h-6.959V17.167H274.5V11.242h1.082ZM277.764,4.754a1.606,1.606,0,0,1,.47,1.223,1.835,1.835,0,0,1-.2.87,1.362,1.362,0,0,1-.647.588,2.836,2.836,0,0,1-1.2.211H274.5V4.307h1.693a2.252,2.252,0,0,1,1.575.447" transform="translate(-135.999 -0.358)"/>
  </g>
</svg>
