<svg id="그룹_499" data-name="그룹 499" xmlns="http://www.w3.org/2000/svg" xmlns:xlink="http://www.w3.org/1999/xlink" width="1494.894" height="716.019" viewBox="0 0 1494.894 716.019">
  <defs>
    <clipPath id="clip-path">
      <rect id="사각형_125" data-name="사각형 125" width="1494.894" height="716.019"/>
    </clipPath>
  </defs>
  <g id="그룹_82" data-name="그룹 82" clip-path="url(#clip-path)">
    <path id="패스_437" data-name="패스 437" d="M210.943,162.169a94.19,94.19,0,0,0-32.4-9.307c10.916-1.457,20.5-4.574,28.7-9.429q17.581-10.411,26.136-27.29A78.2,78.2,0,0,0,241.94,80.29q0-24.984-11.8-42.561T195.677,10.9q-22.666-9.248-55.511-9.253H0V325.464H139.7q35.149,0,60.14-12.028T237.77,279.2q12.95-22.2,12.959-51.809a74.231,74.231,0,0,0-9.943-37.933q-9.962-17.107-29.842-27.294M87.9,65.945h30.057q17.126,0,25.45,7.871t8.326,21.74q0,9.255-3.474,15.726a23.86,23.86,0,0,1-11.093,10.179q-7.631,3.708-19.208,3.7H87.9Zm69.388,174.169a29.552,29.552,0,0,1-12.954,11.569,42.861,42.861,0,0,1-18.505,3.929H87.9V189.926h37.928q15.723,0,25.9,9.021t10.175,23.82a32.881,32.881,0,0,1-4.62,17.347" transform="translate(0 5.296)"/>
    <path id="패스_438" data-name="패스 438" d="M225.679,243.121h-69.62V1.649H68.63V325.464H275.871V243.121H225.679Z" transform="translate(220.401 5.296)"/>
    <path id="패스_439" data-name="패스 439" d="M441.632,268.566,339.4,1.648H247.8L147.424,263.942q-7.871,20.354-11.8,30.525-3.936,10.19-11.8,31H218.2q3.7-12.022,5.782-18.034t3.933-12.032q1.838-6.008,5.551-18.038l2.337-7.4H350.576l1.314,4.161v.463q4.163,12.489,6.246,18.964t3.933,12.723q1.838,6.248,6.014,19.2h95.292q-7.4-18.958-10.87-28.217t-10.874-28.68M259.908,193.623,293.148,88.362l33.287,105.261Z" transform="translate(397.677 5.292)"/>
    <path id="패스_440" data-name="패스 440" d="M453.655,242.63q-24.751,9.95-55.284,9.947-30.992,0-53.89-10.638T309.1,211.87q-12.5-19.432-12.5-45.8,0-26.823,11.565-45.8t33.308-28.912q21.744-9.943,52.277-9.943a125.211,125.211,0,0,1,53.195,11.56,102.554,102.554,0,0,1,40.712,33.308V28.221A166.784,166.784,0,0,0,440.006,7.172,218.059,218.059,0,0,0,382.646,0q-54.587,0-94.829,21.276a148.06,148.06,0,0,0-61.993,61.066q-21.75,39.8-21.739,94.37,0,45.8,20.358,82.57a146.5,146.5,0,0,0,57.128,57.6q36.772,20.815,83.96,20.817,64.757,0,95.524-29.375T491.819,215.1Q478.4,232.691,453.655,242.63" transform="translate(655.407 0)"/>
    <path id="패스_441" data-name="패스 441" d="M440.664,154.069S572.971,9.671,580.371,1.648H478.862C470.224,11.827,371.8,127.882,371.8,127.882V1.648h-87.9V325.467h87.9V199.228L477.476,325.467h105.67" transform="translate(911.748 5.292)"/>
    <path id="패스_442" data-name="패스 442" d="M236.153,253.419q14.574-24.289,14.572-54.357t-14.572-54.353q-14.567-24.29-40.708-37.933T136,93.127H0V416.946H87.43V305H136q33.31,0,59.445-13.645t40.708-37.933m-79.335-35.852a28.408,28.408,0,0,1-13.182,12.259q-9.021,4.4-23.824,4.393H87.43V163.9h32.382q21.744,0,31.455,9.484t9.716,25.673a38.995,38.995,0,0,1-4.165,18.505" transform="translate(0 299.073)"/>
    <path id="패스_443" data-name="패스 443" d="M373.37,360.045,271.133,93.127H179.542L79.154,355.421q-7.865,20.354-11.792,30.525-3.936,10.19-11.8,31h94.374q3.7-12.022,5.778-18.038t3.933-12.028q1.845-6.008,5.551-18.042l2.337-7.4H282.31l1.314,4.161v.463q4.163,12.489,6.246,18.964t3.933,12.723q1.844,6.248,6.01,19.2h95.3q-7.41-18.958-10.878-28.217t-10.866-28.68M191.642,285.1l33.241-105.257L258.17,285.1Z" transform="translate(178.432 299.073)"/>
    <path id="패스_444" data-name="패스 444" d="M341.479,106.776q-26.141-13.639-59.445-13.649h-136V416.946h87.43V305h48.571q33.3,0,59.445-13.645t40.7-37.933q14.58-24.289,14.572-54.357t-14.572-54.353q-14.567-24.29-40.7-37.933M302.852,217.567a28.4,28.4,0,0,1-13.186,12.259q-9.021,4.4-23.82,4.393H233.464V163.9h32.382q21.737,0,31.455,9.484t9.712,25.673a38.995,38.995,0,0,1-4.161,18.505" transform="translate(468.981 299.073)"/>
    <path id="패스_445" data-name="패스 445" d="M215.039,93.127V416.942H450.034V339.228H302.469V292.043H416.991V214.325H302.469V170.841H450.034V93.127H215.039Z" transform="translate(690.589 299.074)"/>
    <path id="패스_446" data-name="패스 446" d="M479.523,416.946H583.146a6.262,6.262,0,0,1-1.154-1.39,7.553,7.553,0,0,0-1.158-1.39c-5.862-8.014-27.758-37.313-36.084-48.107l-60.283-79.8q24.984-13.329,39-36.311,14.333-23.595,14.344-53.2t-14.344-53.2q-14.34-23.588-40.25-37.006T424.012,93.127H283.905V416.946h90.609V300.373H395.8ZM438.815,172.694q9.255,8.793,9.252,24.056a36.023,36.023,0,0,1-3.929,17.111q-3.942,7.41-12.723,11.569t-23.592,4.161H374.515V163.9h33.308q21.737,0,30.992,8.789" transform="translate(911.748 299.073)"/>
  </g>
</svg>
