<svg xmlns="http://www.w3.org/2000/svg" xmlns:xlink="http://www.w3.org/1999/xlink" width="78.203" height="77.92" viewBox="0 0 78.203 77.92">
  <defs>
    <clipPath id="clip-path">
      <rect id="사각형_35" data-name="사각형 35" width="78.203" height="77.92"/>
    </clipPath>
  </defs>
  <g id="그룹_30" data-name="그룹 30" clip-path="url(#clip-path)">
    <path id="패스_176" data-name="패스 176" d="M4.89,133.4V78.085H0v60.077H34.174a39.794,39.794,0,0,0,14.488-2.275,19.045,19.045,0,0,0,7.26-4.755A42.666,42.666,0,0,1,41.1,133.4Z" transform="translate(0 -60.242)"/>
    <path id="패스_177" data-name="패스 177" d="M93.513,92.59c-.727.228-1.488.429-2.272.613a48.9,48.9,0,0,1-11.1,1.151H43.933V39.042h-4.89V99.119H73.217a39.8,39.8,0,0,0,14.488-2.275,24.7,24.7,0,0,0,2.508-1.153A18.933,18.933,0,0,0,93.2,93.74a15.349,15.349,0,0,0,1.764-1.65c-.471.176-.954.345-1.453.5" transform="translate(-29.887 -30.121)"/>
    <path id="패스_178" data-name="패스 178" d="M136,35.445a14.794,14.794,0,0,0-5.813-5.321,15.559,15.559,0,0,0-1.5-.7,16.876,16.876,0,0,0-2-.669,19.481,19.481,0,0,0-2.553-.5c-.658-.085-1.335-.143-2.034-.171-.339-.013-.679-.026-1.028-.026.352-.026.688-.071,1.028-.109.7-.08,1.379-.179,2.03-.312a18.415,18.415,0,0,0,3.907-1.242,14.9,14.9,0,0,0,2.619-1.5,13.962,13.962,0,0,0,1.294-1.041,12.165,12.165,0,0,0,4.008-9.355,12.25,12.25,0,0,0-5.461-10.771Q125.029,0,114.021,0H78.086V60.077H112.26a44.926,44.926,0,0,0,11.609-1.334c.748-.2,1.46-.431,2.149-.678.243-.087.495-.169.73-.262a24.65,24.65,0,0,0,2.507-1.153,18.9,18.9,0,0,0,2.988-1.952,14.629,14.629,0,0,0,3-3.2,16.149,16.149,0,0,0,2.73-9.269A12.88,12.88,0,0,0,136,35.445M112.26,16.993a4.579,4.579,0,0,1-1.629,3.691,6.546,6.546,0,0,1-4.36,1.373h-5.808V12.015h5.808a6.691,6.691,0,0,1,4.36,1.33A4.263,4.263,0,0,1,111.881,15a5.06,5.06,0,0,1,.378,1.993m-1.5,27.077a6.727,6.727,0,0,1-4.492,1.416h-5.808V34.93h5.808a6.6,6.6,0,0,1,4.492,1.459,4.878,4.878,0,0,1,1.673,3.862c0,.112-.009.217-.015.326a5.322,5.322,0,0,1-.283,1.5,4.53,4.53,0,0,1-1.376,1.989" transform="translate(-59.775)"/>
  </g>
</svg>
